<?xml version="1.0" standalone="no"?>
<!DOCTYPE svg PUBLIC "-//W3C//DTD SVG 20010904//EN"
 "http://www.w3.org/TR/2001/REC-SVG-20010904/DTD/svg10.dtd">
<svg version="1.0" xmlns="http://www.w3.org/2000/svg"
 width="463.000000pt" height="463.000000pt" viewBox="0 0 463.000000 463.000000"
 preserveAspectRatio="xMidYMid meet">
<metadata>
Created by potrace 1.11, written by Peter Selinger 2001-2013
</metadata>
<g transform="translate(0.000000,463.000000) scale(0.100000,-0.100000)"
fill="#000000" stroke="none">
<path d="M3217 4466 c-125 -45 -299 -168 -428 -302 -254 -265 -387 -593 -364
-894 16 -212 52 -343 150 -550 89 -185 105 -243 105 -370 0 -126 -17 -186
-100 -360 -80 -167 -101 -227 -129 -365 -55 -274 -26 -517 89 -746 174 -345
596 -691 810 -666 99 12 241 89 386 210 215 179 374 413 450 662 26 84 28 102
28 275 1 264 -28 384 -154 645 -81 166 -95 217 -94 350 0 124 22 200 104 363
113 224 145 362 144 622 0 172 -2 191 -27 275 -101 334 -383 669 -690 820
-120 59 -183 66 -280 31z"/>
<path d="M1187 4456 c-125 -45 -299 -168 -428 -302 -254 -265 -387 -593 -364
-894 16 -212 52 -343 150 -550 89 -185 105 -243 105 -370 0 -126 -17 -186
-100 -360 -80 -167 -101 -227 -129 -365 -55 -274 -26 -517 89 -746 174 -345
596 -691 810 -666 99 12 241 89 386 210 215 179 374 413 450 662 26 84 28 102
28 275 1 264 -28 384 -154 645 -81 166 -95 217 -94 350 0 124 22 200 104 363
113 224 145 362 144 622 0 172 -2 191 -27 275 -101 334 -383 669 -690 820
-120 59 -183 66 -280 31z"/>
</g>
</svg>
